<?xml version="1.0" standalone="no"?>
<!DOCTYPE svg PUBLIC "-//W3C//DTD SVG 20010904//EN"
 "http://www.w3.org/TR/2001/REC-SVG-20010904/DTD/svg10.dtd">
<svg version="1.0" xmlns="http://www.w3.org/2000/svg"
 width="646.000000pt" height="297.000000pt" viewBox="0 0 646.000000 297.000000"
 preserveAspectRatio="xMidYMid meet">

<g transform="translate(0.000000,297.000000) scale(0.100000,-0.100000)"
fill="#000000" stroke="none">
<path d="M0 1485 l0 -1485 3230 0 3230 0 0 1485 0 1485 -3230 0 -3230 0 0
-1485z m358 1325 c28 -21 52 -43 55 -47 3 -4 50 -8 105 -7 98 0 101 1 136 32
60 53 85 67 98 54 14 -14 26 -95 27 -178 1 -34 8 -81 16 -104 27 -76 14 -179
-31 -248 -15 -23 -16 -23 -30 -5 -14 17 -14 17 -5 -3 13 -27 -15 -58 -86 -94
-89 -46 -256 -29 -259 27 -1 14 3 20 13 16 11 -4 11 -8 1 -22 -12 -14 -11 -14
4 -3 10 8 16 19 15 24 -1 6 4 13 11 15 7 3 12 1 11 -4 -1 -4 -1 -14 0 -22 1
-12 4 -11 19 1 19 18 74 17 95 0 8 -7 17 -9 20 -5 4 3 7 1 7 -5 0 -6 9 -10 19
-9 18 1 19 3 4 27 -11 20 -23 26 -44 25 -18 -1 -28 3 -26 9 3 6 10 10 16 8 6
-1 11 11 11 28 0 27 -3 30 -30 30 -33 0 -39 14 -12 29 15 9 14 10 -6 11 -13 0
-21 -4 -17 -9 3 -5 1 -12 -4 -16 -6 -3 -8 -13 -5 -23 5 -13 4 -14 -4 -3 -6 8
-18 11 -31 6 -16 -5 -21 -2 -21 13 0 11 -6 24 -13 30 -10 8 -12 5 -11 -16 2
-49 4 -54 18 -49 8 3 17 -1 20 -9 3 -8 12 -14 21 -14 18 0 20 -16 3 -26 -7 -5
-8 -3 -3 6 6 10 4 12 -8 7 -10 -3 -17 -2 -17 2 0 5 -9 7 -20 4 -11 -3 -20 -9
-20 -14 0 -5 -7 -9 -15 -9 -20 0 -19 29 1 51 12 14 13 18 2 25 -7 4 -10 3 -5
-1 4 -5 0 -16 -9 -26 -15 -16 -19 -17 -37 -4 -12 8 -34 15 -48 15 -23 0 -29 7
-43 47 -20 57 -21 128 -3 179 8 22 17 88 20 147 7 103 17 147 36 147 5 0 32
-18 59 -40z m1070 -197 c2 -39 -1 -63 -8 -63 -5 0 -10 -12 -10 -27 l-1 -28
-22 28 -23 27 -192 0 -192 0 0 58 c0 32 3 62 7 66 4 3 104 5 222 4 l216 -3 3
-62z m227 -23 c0 -50 -4 -75 -12 -77 -10 -4 -13 16 -13 77 0 61 3 81 13 78 8
-3 12 -28 12 -78z m142 2 l2 -72 -56 0 -56 0 6 34 c4 25 1 36 -9 40 -18 7 -18
40 1 56 19 15 61 6 69 -16 4 -10 -1 -25 -10 -35 -16 -18 -16 -19 4 -19 19 0
22 6 22 46 0 32 4 44 13 42 8 -3 13 -29 14 -76z m142 47 c1 -13 8 -27 15 -31
8 -6 8 -10 -1 -16 -6 -4 -13 -23 -15 -41 -2 -19 -9 -36 -15 -39 -10 -3 -13 17
-13 78 0 61 3 81 13 78 6 -3 14 -15 16 -29z m-319 -49 c0 -40 -4 -70 -10 -70
-5 0 -10 16 -10 35 0 41 -5 43 -36 14 -29 -27 -51 -16 -24 11 24 24 26 50 5
50 -8 0 -15 5 -15 10 0 6 13 10 29 10 23 0 31 -5 34 -22 4 -20 4 -19 6 5 0 15
6 27 11 27 6 0 10 -30 10 -70z m275 38 c-11 -39 -26 -64 -46 -76 -34 -22 -41
-2 -9 28 37 34 38 50 5 50 -14 0 -25 5 -25 10 0 6 18 10 41 10 37 0 40 -2 34
-22z m195 12 c0 -5 -18 -10 -40 -10 -29 0 -40 -4 -40 -15 0 -11 11 -15 40 -15
22 0 40 -4 40 -10 0 -5 -25 -10 -55 -10 l-55 0 0 35 0 35 55 0 c30 0 55 -4 55
-10z m10 -100 c0 -6 -30 -10 -70 -10 -40 0 -70 4 -70 10 0 6 30 10 70 10 40 0
70 -4 70 -10z m-1060 -109 c13 -25 13 -68 0 -76 -5 -3 -7 -12 -4 -19 3 -7 -3
-17 -13 -20 -22 -9 -53 26 -53 59 0 64 46 101 70 56z m160 -52 l0 -70 -27 3
c-25 3 -28 7 -31 46 -3 37 0 44 17 49 12 3 21 14 21 24 0 11 5 19 10 19 6 0
10 -30 10 -71z m140 61 c0 -5 -4 -10 -10 -10 -5 0 -10 5 -10 10 0 6 5 10 10
10 6 0 10 -4 10 -10z m-222 -80 c3 -42 1 -46 -22 -48 -34 -2 -53 30 -30 52 8
9 20 16 25 16 5 0 9 5 9 11 0 6 -9 8 -20 4 -12 -4 -20 -2 -20 5 0 6 12 10 28
8 24 -3 27 -7 30 -48z m170 -2 c2 -29 -1 -48 -7 -48 -6 0 -12 21 -13 48 l-2
47 -3 -47 c-2 -27 -8 -48 -14 -48 -5 0 -10 21 -11 48 l-2 47 -3 -47 c-5 -64
-23 -61 -23 3 l0 50 38 -3 c37 -3 37 -3 40 -50z m52 2 c0 -27 -4 -50 -10 -50
-5 0 -10 23 -10 50 0 28 5 50 10 50 6 0 10 -22 10 -50z m98 -2 c2 -29 -1 -48
-7 -48 -6 0 -11 20 -11 46 0 27 -4 43 -10 39 -5 -3 -10 -21 -10 -40 0 -19 -4
-37 -10 -40 -6 -4 -10 13 -10 45 0 50 1 51 28 48 25 -3 27 -7 30 -50z m-1108
-78 c11 -11 20 -29 20 -40 0 -26 -34 -60 -60 -60 -26 0 -60 34 -60 60 0 11 9
29 20 40 11 11 29 20 40 20 11 0 29 -9 40 -20z m113 -317 c7 6 45 -32 51 -51
15 -46 14 -113 0 -119 -8 -3 -14 -10 -14 -17 0 -16 -31 -32 -62 -31 -15 1 -24
-3 -21 -9 10 -15 -48 3 -79 25 -15 11 -28 25 -28 31 0 7 11 1 24 -11 31 -29
36 -18 23 46 -9 42 -8 59 6 93 14 36 14 41 1 36 -9 -3 -12 -2 -9 5 4 6 13 8
21 5 7 -3 16 -1 19 4 3 5 18 5 35 0 17 -5 31 -8 33 -7z m-131 -56 c-2 -21 -9
-34 -19 -34 -23 0 -4 59 22 67 1 0 -1 -15 -3 -33z m317 -18 c8 -15 11 -36 8
-51 -8 -31 -43 -43 -57 -20 -5 10 -9 13 -10 7 0 -22 19 -38 39 -32 12 3 21 1
21 -4 0 -5 -2 -9 -4 -9 -2 0 -11 -3 -19 -6 -41 -15 -66 89 -30 128 20 23 34
19 52 -13z m146 21 c3 -5 1 -10 -4 -10 -6 0 -11 5 -11 10 0 6 2 10 4 10 3 0 8
-4 11 -10z m250 -35 c17 0 20 -8 23 -47 2 -29 -1 -48 -7 -48 -6 0 -11 18 -11
40 0 22 -4 40 -10 40 -9 0 -15 -17 -23 -70 -3 -14 -4 11 -4 55 -1 44 2 69 6
55 4 -16 13 -25 26 -25z m495 20 c0 -14 6 -25 13 -26 10 0 10 -2 0 -6 -7 -2
-13 -16 -13 -29 0 -13 -4 -24 -10 -24 -5 0 -10 25 -10 55 0 30 5 55 10 55 6 0
10 -11 10 -25z m158 -47 l-3 -73 -45 0 c-38 0 -45 3 -48 21 -2 16 4 23 23 28
15 4 35 4 45 1 15 -5 17 -2 13 15 -3 11 -14 20 -24 20 -27 0 -24 20 4 21 21 1
21 1 -3 9 -24 8 -24 8 -2 9 12 1 22 6 22 11 0 6 5 10 10 10 7 0 10 -27 8 -72z
m98 57 c6 -16 -26 -94 -39 -95 -10 0 1 40 14 55 19 19 10 37 -16 33 -24 -5
-32 2 -18 15 12 13 54 7 59 -8z m-308 -4 c18 -11 11 -51 -10 -65 -35 -22 -74
27 -48 59 14 17 38 19 58 6z m112 -21 c0 -27 3 -30 33 -31 27 0 29 -2 12 -9
-11 -5 -30 -9 -42 -9 -20 -1 -23 4 -23 39 0 22 5 40 10 40 6 0 10 -13 10 -30z
m-870 -19 c5 -11 10 -33 10 -49 0 -24 -5 -31 -25 -36 -33 -8 -45 -1 -45 29 0
18 7 26 25 31 33 8 32 24 -1 24 -14 0 -23 4 -19 10 10 17 44 11 55 -9z m70
-36 c0 -24 -4 -47 -10 -50 -6 -4 -10 15 -10 50 0 35 4 54 10 50 6 -3 10 -26
10 -50z m185 46 c3 -5 -5 -11 -17 -13 -18 -2 -23 -9 -23 -33 0 -25 4 -30 23
-29 23 1 29 -10 12 -21 -36 -22 -72 35 -51 81 10 24 44 33 56 15z m165 -10 c5
-11 10 -33 10 -49 0 -24 -5 -31 -25 -36 -33 -8 -45 -1 -45 29 0 18 7 26 25 31
33 8 32 24 -1 24 -14 0 -23 4 -19 10 10 17 44 11 55 -9z m82 6 c11 -18 10 -87
-2 -87 -5 0 -10 18 -10 41 0 55 -23 47 -31 -12 l-6 -44 -1 55 c-2 51 0 56 20
57 12 1 26 -3 30 -10z m-902 -33 c0 -8 -8 -14 -17 -14 -15 0 -16 2 -3 10 11 7
11 10 2 10 -7 0 -10 5 -7 10 8 13 25 3 25 -16z m1130 -33 c0 -16 8 -21 48 -24
46 -3 46 -3 -10 -5 -56 -2 -58 -1 -58 23 0 14 5 25 10 25 6 0 10 -9 10 -19z
m318 -19 c2 -7 -3 -12 -12 -12 -9 0 -16 7 -16 16 0 17 22 14 28 -4z m-885 -19
c-13 -2 -33 -2 -45 0 -13 2 -3 4 22 4 25 0 35 -2 23 -4z m1271 -278 c-16 -24
-16 -56 0 -100 8 -20 7 -20 -8 -1 -27 33 -16 126 15 126 5 0 2 -11 -7 -25z
m226 -51 c0 -36 -4 -64 -10 -64 -6 0 -10 30 -10 71 0 44 4 68 10 64 6 -3 10
-35 10 -71z m420 9 c0 -38 -15 -73 -31 -73 -6 0 -3 10 5 22 20 29 20 51 0 91
l-17 32 22 -19 c14 -12 21 -31 21 -53z m-2500 42 c10 -12 8 -21 -9 -48 -26
-43 -26 -45 2 -50 16 -3 13 -5 -10 -6 -39 -1 -42 14 -12 53 24 30 19 59 -7 49
-12 -4 -15 -3 -10 5 10 16 31 15 46 -3z m78 -41 c2 -38 -1 -54 -14 -65 -14
-11 -18 -11 -30 6 -28 37 -10 120 24 113 13 -2 18 -16 20 -54z m72 41 c10 -12
8 -21 -9 -48 -26 -43 -26 -45 2 -50 16 -3 13 -5 -10 -6 -39 -1 -42 14 -12 53
24 30 19 59 -7 49 -12 -4 -15 -3 -10 5 10 16 31 15 46 -3z m55 -15 c-18 -19
-17 -20 3 -20 25 0 37 -32 22 -60 -20 -37 -50 -15 -50 39 0 32 27 78 38 66 3
-3 -3 -14 -13 -25z m247 -17 c3 -27 1 -55 -3 -63 -6 -10 -8 -11 -9 -2 0 6 -9
12 -20 12 -11 0 -20 7 -20 15 0 19 32 85 41 85 4 0 9 -21 11 -47z m223 37 c14
-22 13 -99 -1 -111 -27 -23 -43 -3 -42 53 0 29 3 56 5 61 6 10 31 9 38 -3z
m279 -6 c24 -23 17 -44 -16 -57 -28 -10 -21 -25 15 -30 17 -2 3 -4 -33 -4 -36
0 -53 2 -37 4 32 5 35 18 7 33 -25 13 -26 45 -2 59 25 15 48 13 66 -5z m156
-28 c0 -25 -4 -48 -10 -51 -6 -3 -10 5 -10 19 0 14 -8 30 -17 35 -17 10 -17
10 0 11 9 0 17 7 17 15 0 8 5 15 10 15 6 0 10 -20 10 -44z m152 -3 c3 -27 1
-55 -3 -63 -6 -10 -8 -11 -9 -2 0 6 -11 12 -25 12 -14 0 -25 2 -25 5 0 11 45
95 51 95 4 0 9 -21 11 -47z m150 0 c3 -27 1 -55 -3 -63 -6 -10 -8 -11 -9 -2 0
6 -9 12 -20 12 -11 0 -20 7 -20 15 0 19 32 85 41 85 4 0 9 -21 11 -47z m84 30
c-3 -10 -10 -38 -17 -63 -6 -25 -14 -40 -16 -33 -2 6 0 29 6 49 12 44 4 65
-16 39 -12 -18 -13 -18 -13 3 0 18 6 22 31 22 24 0 29 -4 25 -17z m145 -10
c16 -40 0 -98 -26 -98 -17 0 -20 8 -23 49 -2 27 -1 55 2 62 9 23 36 16 47 -13z
m56 9 c-22 -24 -21 -29 3 -35 25 -6 27 -49 4 -68 -36 -29 -60 54 -28 99 8 12
20 22 26 22 6 0 4 -8 -5 -18z m233 -42 c0 -33 -4 -60 -10 -60 -5 0 -10 23 -10
50 0 33 -4 50 -12 50 -9 0 -8 4 2 10 26 17 30 11 30 -50z m289 10 c-4 -3 -9
-16 -12 -30 -2 -14 -5 0 -5 30 -2 51 -1 53 11 30 7 -14 10 -27 6 -30z m210 -2
c-1 -29 -4 -42 -6 -28 -2 14 -12 31 -21 38 -14 11 -14 12 1 12 9 0 17 7 17 15
0 8 2 15 5 15 3 0 4 -24 4 -52z m-1371 35 c-22 -6 -22 -12 -1 -35 9 -10 11
-18 5 -18 -6 0 -14 5 -17 11 -5 7 -14 4 -26 -7 -23 -20 -25 -7 -3 21 13 18 13
20 -3 27 -11 4 -3 6 22 6 22 0 32 -2 23 -5z m978 -64 c20 -23 8 -26 -16 -4
-15 14 -18 14 -30 0 -22 -27 -32 -16 -11 11 12 15 21 36 22 48 1 17 3 15 9 -8
5 -15 17 -37 26 -47z m134 57 c0 -16 -46 -56 -64 -56 -6 0 5 13 24 28 l34 27
-29 6 -30 7 33 1 c22 1 32 -4 32 -13z m213 7 c-19 -7 -16 -30 5 -42 16 -10 16
-10 0 -11 -9 0 -20 5 -23 10 -4 6 -12 4 -22 -5 -8 -9 -18 -14 -20 -11 -3 3 2
12 11 21 21 21 20 32 -1 38 -10 3 0 5 22 5 22 0 34 -2 28 -5z m-1063 -13 c0
-5 -4 -10 -10 -10 -5 0 -10 5 -10 10 0 6 5 10 10 10 6 0 10 -4 10 -10z m230 0
c0 -5 -4 -10 -10 -10 -5 0 -10 5 -10 10 0 6 5 10 10 10 6 0 10 -4 10 -10z
m590 -69 c0 -16 8 -21 43 -24 40 -3 40 -4 -10 -5 -50 -2 -53 -1 -53 23 0 14 5
25 10 25 6 0 10 -9 10 -19z m-1067 -24 l42 -4 -47 -1 c-44 -2 -48 0 -47 21 1
16 3 17 6 5 3 -12 17 -18 46 -21z m247 23 c0 -5 -4 -10 -10 -10 -5 0 -10 5
-10 10 0 6 5 10 10 10 6 0 10 -4 10 -10z m230 0 c0 -5 -4 -10 -10 -10 -5 0
-10 5 -10 10 0 6 5 10 10 10 6 0 10 -4 10 -10z m810 -4 c0 -10 13 -16 38 -19
34 -3 33 -4 -10 -5 -42 -2 -48 1 -48 18 0 11 5 20 10 20 6 0 10 -6 10 -14z
m-2080 -6 c0 -5 -7 -10 -15 -10 -8 0 -15 5 -15 10 0 6 7 10 15 10 8 0 15 -4
15 -10z m220 0 c0 -5 -4 -10 -10 -10 -5 0 -10 5 -10 10 0 6 5 10 10 10 6 0 10
-4 10 -10z m230 0 c0 -5 -7 -10 -15 -10 -8 0 -15 5 -15 10 0 6 7 10 15 10 8 0
15 -4 15 -10z m295 -340 c15 -16 15 -22 5 -35 -14 -17 -45 -21 -35 -4 5 7 -11
9 -47 7 -46 -3 -53 -6 -56 -25 -4 -30 -22 -30 -22 0 0 35 19 47 77 47 42 0 51
3 47 15 -9 21 10 19 31 -5z m595 -30 c0 -27 3 -30 30 -30 17 0 30 -4 30 -10 0
-5 -13 -10 -30 -10 -27 0 -30 -3 -30 -30 0 -16 -4 -30 -10 -30 -5 0 -10 14
-10 30 0 27 -3 30 -30 30 -16 0 -30 5 -30 10 0 6 14 10 30 10 27 0 30 3 30 30
0 17 5 30 10 30 6 0 10 -13 10 -30z m-1514 5 c-4 -12 3 -15 34 -15 39 0 80
-26 80 -50 0 -15 -38 -50 -55 -50 -22 0 -18 17 5 23 24 6 27 42 4 51 -9 3 -29
6 -45 6 -26 0 -29 -3 -24 -20 8 -24 -2 -26 -27 -3 -22 20 -23 31 -1 55 20 22
37 24 29 3z m262 -52 l-2 -68 -3 63 c-3 42 -8 60 -15 56 -7 -4 -8 -3 -4 4 17
28 26 7 24 -55z m1850 4 c2 -10 -3 -17 -12 -17 -18 0 -29 16 -21 31 9 14 29 6
33 -14z m67 2 c0 -7 -8 -15 -17 -17 -18 -3 -25 18 -11 32 10 10 28 1 28 -15z
m63 -2 c2 -10 -3 -17 -12 -17 -18 0 -29 16 -21 31 9 14 29 6 33 -14z m-1308
-17 c0 -36 -23 -50 -85 -50 -28 0 -44 -4 -40 -10 10 -16 -7 -12 -27 7 -17 15
-17 17 -2 35 21 22 38 24 30 2 -5 -13 3 -15 47 -12 48 3 52 5 55 31 4 36 22
35 22 -3z m1700 -676 c11 -12 10 -18 -4 -32 -13 -14 -18 -14 -25 -4 -5 8 -22
12 -42 10 -26 -2 -35 -8 -37 -25 -4 -30 -22 -30 -22 0 0 33 19 47 62 47 21 0
38 5 38 10 0 15 16 12 30 -6z m2120 -5 c23 -41 -38 -68 -63 -27 -8 12 -7 21 2
32 19 22 48 20 61 -5z m65 11 c20 17 32 5 15 -15 -10 -12 -10 -18 0 -30 8 -9
9 -15 2 -15 -6 0 -14 5 -17 10 -5 8 -11 7 -21 -1 -19 -15 -30 -4 -15 15 8 10
9 16 1 21 -5 3 -10 11 -10 17 0 7 6 6 15 -2 12 -10 18 -10 30 0z m-4089 -37
c18 -18 94 -17 94 1 0 10 -13 16 -37 19 -35 3 -34 4 10 5 40 2 47 -1 47 -17 0
-11 6 -22 13 -25 6 -3 -23 -5 -65 -3 l-78 2 0 -37 c0 -38 0 -38 -40 -38 -35 0
-40 3 -40 23 0 20 4 23 29 19 16 -2 32 1 35 7 5 7 -8 11 -38 11 -44 0 -46 1
-46 30 0 28 2 30 38 29 30 -2 32 -3 10 -6 -20 -3 -28 -10 -28 -25 0 -16 5 -19
23 -14 12 3 25 6 30 6 4 0 7 8 7 18 0 24 13 37 19 20 2 -7 10 -18 17 -25z
m2111 -60 c-2 -21 -4 -6 -4 32 0 39 2 55 4 38 2 -18 2 -50 0 -70z m2190 0 c-2
-21 -4 -6 -4 32 0 39 2 55 4 38 2 -18 2 -50 0 -70z m126 84 c3 10 5 -12 6 -49
1 -40 -3 -68 -9 -68 -5 0 -10 7 -10 15 0 10 -11 15 -35 15 -19 0 -35 5 -35 10
0 6 11 10 25 10 23 0 25 4 25 43 1 38 2 40 14 24 14 -18 14 -18 19 0z m137
-37 c0 -27 -4 -50 -10 -50 -5 0 -10 9 -10 20 0 11 -5 20 -11 20 -5 0 -7 -4 -4
-10 9 -14 -8 -12 -24 3 -11 10 -14 10 -18 0 -3 -7 -12 -13 -20 -13 -14 0 -14
2 0 18 10 10 17 26 17 35 0 9 5 17 10 17 6 0 10 -9 10 -19 0 -25 12 -33 30
-20 11 8 12 12 3 15 -10 4 -10 8 0 19 21 24 27 17 27 -35z m-4865 19 c-4 -5 9
-9 27 -9 40 0 58 -15 58 -47 0 -26 -19 -37 -47 -30 -16 4 -15 6 5 12 34 11 24
39 -16 43 -25 3 -31 0 -26 -12 9 -22 -9 -20 -31 4 -17 19 -17 21 0 40 17 19
41 18 30 -1z m2383 -6 c3 -19 -1 -23 -22 -23 -39 0 -33 -28 7 -33 28 -3 26 -4
-10 -5 -40 -2 -43 0 -43 23 0 20 5 25 25 25 14 0 25 5 25 10 0 6 -11 10 -25
10 -14 0 -25 5 -25 11 0 6 14 9 33 7 24 -2 33 -8 35 -25z m125 -24 c23 -1 32
-4 20 -6 -32 -6 -30 -33 2 -33 14 0 25 -4 25 -10 0 -6 -27 -10 -60 -10 -33 0
-60 4 -60 10 0 6 11 10 25 10 16 0 25 6 25 15 0 8 -9 15 -20 15 -14 0 -20 7
-20 23 0 34 14 44 18 13 3 -23 8 -26 45 -27z m157 41 c0 -5 -17 -11 -37 -11
l-38 -2 40 -7 40 -7 -37 -2 c-52 -2 -48 -19 5 -24 40 -3 40 -4 -10 -5 -52 -2
-53 -1 -53 26 0 16 3 32 7 35 10 11 83 8 83 -3z m1908 -17 c3 -19 -1 -23 -22
-23 -39 0 -33 -28 7 -33 28 -3 26 -4 -10 -5 -40 -2 -43 0 -43 23 0 20 5 25 25
25 14 0 25 5 25 10 0 6 -11 10 -25 10 -14 0 -25 5 -25 11 0 6 14 9 33 7 24 -2
33 -8 35 -25z m110 -5 c3 -24 0 -28 -22 -28 -30 0 -40 13 -31 41 10 31 49 21
53 -13z m-2470 -45 c-3 -25 -7 -28 -48 -31 -24 -2 -48 -9 -52 -15 -5 -9 -12
-7 -25 6 -16 16 -16 18 1 35 13 12 20 14 23 5 3 -8 22 -13 44 -13 32 0 39 3
39 20 0 11 5 20 11 20 6 0 9 -12 7 -27z m-1798 -3 c0 -16 -7 -20 -37 -21 l-38
-2 40 -7 40 -7 -47 -2 c-42 -1 -48 2 -48 19 0 16 7 20 38 21 l37 2 -40 7 -40
7 48 2 c41 1 47 -2 47 -19z m3917 -45 c-5 -13 -57 -19 -69 -7 -5 5 -2 21 9 41
l18 31 22 -27 c13 -16 21 -32 20 -38z m78 25 c0 -32 -2 -35 -30 -35 -28 0 -30
3 -33 38 -3 38 -3 38 30 35 30 -3 33 -6 33 -38z m385 6 c0 -10 13 -16 38 -19
34 -3 33 -4 -10 -5 -42 -2 -48 1 -48 18 0 11 5 20 10 20 6 0 10 -6 10 -14z
m-2110 -6 c0 -6 -27 -10 -60 -10 -33 0 -60 4 -60 10 0 6 27 10 60 10 33 0 60
-4 60 -10z"/>
<path d="M326 2739 c-2 -8 -6 -24 -9 -36 -5 -22 -4 -22 19 -5 28 20 29 26 9
42 -12 10 -16 10 -19 -1z"/>
<path d="M685 2729 c-4 -6 -5 -11 -4 -12 2 -1 13 -10 25 -20 20 -17 20 -16 16
13 -4 30 -25 40 -37 19z"/>
<path d="M416 2698 c-24 -34 -21 -60 7 -56 18 2 23 10 25 41 4 42 -9 48 -32
15z"/>
<path d="M560 2711 c0 -21 13 -41 27 -41 8 0 11 -5 7 -12 -5 -7 -3 -8 6 -3 7
4 16 2 20 -5 5 -9 9 -9 14 -1 4 6 2 11 -3 11 -6 0 -11 8 -11 18 0 10 -5 23
-12 30 -14 14 -48 16 -48 3z"/>
<path d="M538 2673 c7 -3 16 -2 19 1 4 3 -2 6 -13 5 -11 0 -14 -3 -6 -6z"/>
<path d="M490 2613 c0 -45 30 -90 51 -77 6 3 5 -3 -3 -15 -7 -12 -19 -19 -28
-16 -10 3 -10 1 3 -9 9 -7 17 -20 17 -29 0 -9 5 -19 10 -22 6 -3 10 1 10 9 0
9 7 16 15 16 8 0 15 -4 15 -10 0 -5 5 -10 10 -10 6 0 10 11 10 25 0 14 -5 25
-12 25 -6 0 -8 3 -4 7 4 5 13 0 20 -9 11 -15 16 -15 31 -4 14 10 16 18 8 42
-6 17 -17 30 -29 31 -16 2 -16 1 -1 -3 9 -3 17 -10 17 -15 0 -6 -4 -7 -10 -4
-5 3 -10 1 -10 -4 0 -6 7 -11 15 -11 8 0 15 -7 15 -16 0 -14 -2 -14 -22 0 -12
9 -31 16 -41 16 -10 0 -16 4 -12 9 3 6 -1 13 -9 18 -8 4 -26 28 -40 53 l-26
45 0 -42z"/>
<path d="M665 2618 c9 -15 14 -32 10 -38 -3 -5 -1 -10 5 -10 6 0 8 -5 5 -11
-4 -6 -14 -8 -22 -5 -12 5 -14 1 -8 -21 10 -42 39 -57 47 -25 3 11 0 19 -7 19
-8 0 -11 -7 -8 -16 5 -13 4 -14 -8 -3 -12 11 -11 15 5 27 22 17 17 51 -14 86
l-21 24 16 -27z"/>
<path d="M410 2616 c7 -7 13 -7 20 0 6 6 3 10 -10 10 -13 0 -16 -4 -10 -10z"/>
<path d="M602 2608 c2 -13 8 -23 13 -23 6 0 11 10 13 23 2 15 -2 22 -13 22
-11 0 -15 -7 -13 -22z"/>
<path d="M340 2582 c0 -16 -9 -37 -20 -47 -11 -10 -20 -22 -20 -28 0 -5 9 1
21 14 14 17 19 19 15 7 -3 -11 -1 -15 8 -12 19 7 36 70 23 83 -18 18 -27 12
-27 -17z"/>
<path d="M400 2581 c0 -11 5 -23 10 -26 6 -3 10 -2 10 4 0 5 3 16 6 25 4 11 1
16 -10 16 -9 0 -16 -8 -16 -19z"/>
<path d="M470 2525 c0 -6 -9 -11 -21 -12 -24 -2 -49 -20 -49 -36 0 -5 8 -3 18
6 23 21 39 22 23 3 -9 -11 -10 -20 -1 -35 12 -24 25 -28 16 -6 -3 9 0 15 9 15
8 0 15 -4 15 -10 0 -5 5 -10 10 -10 15 0 12 41 -5 70 -8 14 -14 20 -15 15z"/>
<path d="M640 2470 c0 -5 -5 -9 -11 -7 -6 1 -14 -5 -16 -13 -4 -12 -3 -12 5
-2 5 8 13 13 18 12 5 -1 10 3 12 9 2 6 1 11 -2 11 -3 0 -6 -4 -6 -10z"/>
<path d="M723 2445 c0 -22 -3 -48 -7 -57 -5 -11 -4 -18 2 -18 16 0 26 68 14
93 -9 19 -10 17 -9 -18z"/>
<path d="M676 2445 c-3 -9 -6 -24 -5 -33 0 -9 5 -4 10 12 9 32 6 48 -5 21z"/>
<path d="M386 2438 c3 -4 12 -8 20 -8 8 0 14 4 14 8 0 4 -9 8 -19 8 -11 0 -17
-4 -15 -8z"/>
<path d="M621 2407 c-13 -21 -12 -21 5 -5 10 10 16 20 13 22 -3 3 -11 -5 -18
-17z"/>
<path d="M441 2394 c0 -11 3 -14 6 -6 3 7 2 16 -1 19 -3 4 -6 -2 -5 -13z"/>
<path d="M560 2400 c-13 -8 -12 -10 3 -10 9 0 17 5 17 10 0 12 -1 12 -20 0z"/>
<path d="M619 2338 c-10 -31 -1 -62 26 -86 25 -22 26 -23 10 -3 l-20 24 21
-11 c19 -10 21 -9 16 16 -3 15 -7 21 -9 15 -3 -7 -9 -13 -15 -13 -6 0 -8 7 -5
15 4 8 1 17 -5 21 -7 4 -6 9 3 15 11 7 10 9 -3 9 -10 0 -18 -1 -19 -2z"/>
<path d="M692 2300 c0 -14 2 -19 5 -12 2 6 2 18 0 25 -3 6 -5 1 -5 -13z"/>
<path d="M507 2203 c18 -2 50 -2 70 0 21 2 7 4 -32 4 -38 0 -55 -2 -38 -4z"/>
<path d="M1150 2615 c0 -36 3 -45 18 -45 13 0 14 2 4 9 -8 5 -12 21 -10 37 2
21 9 30 26 32 12 2 22 -1 22 -7 0 -6 -7 -8 -15 -5 -11 5 -15 -1 -15 -21 0 -20
4 -26 15 -21 18 7 20 -10 3 -18 -7 -2 37 -4 97 -3 l110 2 0 40 0 40 -127 3
-128 3 0 -46z m90 20 c0 -21 18 -19 23 3 3 9 5 -1 5 -23 0 -22 -2 -32 -5 -22
-5 21 -23 23 -23 2 0 -8 -4 -15 -10 -15 -5 0 -10 16 -10 35 0 19 5 35 10 35 6
0 10 -7 10 -15z m90 -11 c14 -36 13 -39 -19 -40 -28 -1 -28 0 -18 33 12 40 24
42 37 7z m53 19 c-7 -2 -14 -19 -14 -36 l-2 -32 -4 30 c-3 16 -10 33 -16 37
-7 4 2 7 18 7 17 0 24 -3 18 -6z"/>
<path d="M1015 2621 c3 -19 7 -37 10 -40 9 -8 23 13 29 44 l6 30 -14 -29 -13
-29 -12 29 -11 29 5 -34z"/>
<path d="M1070 2615 c0 -19 5 -35 10 -35 6 0 10 8 10 17 0 15 1 15 13 -1 12
-17 14 -15 15 18 1 32 -1 36 -23 36 -22 0 -25 -4 -25 -35z m40 15 c0 -5 -4
-10 -10 -10 -5 0 -10 5 -10 10 0 6 5 10 10 10 6 0 10 -4 10 -10z"/>
<path d="M1700 2626 c0 -9 7 -16 16 -16 9 0 14 5 12 12 -6 18 -28 21 -28 4z"/>
<path d="M1733 2543 c9 -2 23 -2 30 0 6 3 -1 5 -18 5 -16 0 -22 -2 -12 -5z"/>
<path d="M996 2421 c-4 -5 3 -7 14 -4 23 6 26 13 6 13 -8 0 -17 -4 -20 -9z"/>
<path d="M1001 2374 c0 -11 3 -14 6 -6 3 7 2 16 -1 19 -3 4 -6 -2 -5 -13z"/>
<path d="M996 2339 c3 -5 12 -9 21 -9 19 0 9 13 -12 16 -8 1 -13 -2 -9 -7z"/>
<path d="M1160 2365 c0 -19 5 -35 10 -35 6 0 10 16 10 35 0 19 -4 35 -10 35
-5 0 -10 -16 -10 -35z"/>
<path d="M1077 2353 c-12 -11 -8 -23 8 -23 8 0 15 7 15 15 0 16 -12 20 -23 8z"/>
<path d="M457 1854 c-4 -4 -4 -10 -1 -15 6 -10 34 0 34 12 0 10 -24 12 -33 3z"/>
<path d="M383 1843 c-18 -6 -16 -23 1 -23 17 0 30 16 19 23 -5 2 -14 2 -20 0z"/>
<path d="M574 1875 c-4 -14 -4 -29 0 -32 3 -4 6 3 6 15 0 16 6 22 21 22 11 0
17 5 14 10 -12 19 -35 10 -41 -15z"/>
<path d="M592 1845 c0 -16 2 -22 5 -12 2 9 2 23 0 30 -3 6 -5 -1 -5 -18z"/>
<path d="M1600 1794 c0 -11 8 -14 27 -12 39 4 42 28 4 28 -21 0 -31 -5 -31
-16z"/>
<path d="M1420 1870 c0 -13 7 -20 20 -20 13 0 20 7 20 20 0 13 -7 20 -20 20
-13 0 -20 -7 -20 -20z"/>
<path d="M671 1816 c-8 -10 -9 -16 -1 -21 13 -8 30 3 30 21 0 18 -14 18 -29 0z"/>
<path d="M1091 1816 c-8 -10 -9 -16 -1 -21 13 -8 30 3 30 21 0 18 -14 18 -29
0z"/>
<path d="M337 1484 c-4 -4 -7 -27 -7 -51 0 -52 23 -56 28 -5 3 34 -9 67 -21
56z"/>
<path d="M484 1425 c-3 -8 -3 -19 1 -25 11 -18 25 -11 25 15 0 27 -17 34 -26
10z"/>
<path d="M710 1440 c-9 -16 -8 -20 5 -20 8 0 15 9 15 20 0 11 -2 20 -5 20 -2
0 -9 -9 -15 -20z"/>
<path d="M935 1480 c-7 -12 2 -30 16 -30 12 0 12 27 0 35 -5 3 -12 1 -16 -5z"/>
<path d="M937 1423 c-13 -12 -7 -33 8 -33 8 0 15 9 15 20 0 20 -11 26 -23 13z"/>
<path d="M1184 1475 c-23 -16 -9 -35 27 -35 22 0 29 5 29 19 0 23 -33 33 -56
16z"/>
<path d="M1520 1440 c-9 -16 -8 -20 5 -20 8 0 15 9 15 20 0 11 -2 20 -5 20 -2
0 -9 -9 -15 -20z"/>
<path d="M1670 1440 c-9 -16 -8 -20 5 -20 8 0 15 9 15 20 0 11 -2 20 -5 20 -2
0 -9 -9 -15 -20z"/>
<path d="M1894 1477 c-9 -24 0 -80 14 -85 8 -2 12 10 12 42 0 45 -15 70 -26
43z"/>
<path d="M1970 1415 c0 -17 5 -25 13 -22 6 2 12 12 12 22 0 10 -6 20 -12 23
-8 2 -13 -6 -13 -23z"/>
<path d="M5107 274 c-8 -8 1 -24 14 -24 5 0 9 7 9 15 0 15 -12 20 -23 9z"/>
<path d="M1053 173 c9 -2 23 -2 30 0 6 3 -1 5 -18 5 -16 0 -22 -2 -12 -5z"/>
<path d="M5541 224 c0 -11 3 -14 6 -6 3 7 2 16 -1 19 -3 4 -6 -2 -5 -13z"/>
<path d="M5474 256 c-8 -22 3 -33 18 -18 9 9 9 15 0 24 -9 9 -13 7 -18 -6z"/>
<path d="M5110 170 c0 -5 5 -10 10 -10 6 0 10 5 10 10 0 6 -4 10 -10 10 -5 0
-10 -4 -10 -10z"/>
<path d="M5190 180 c0 -11 7 -20 15 -20 8 0 15 9 15 20 0 11 -7 20 -15 20 -8
0 -15 -9 -15 -20z"/>
</g>
</svg>
