<?xml version="1.0" standalone="no"?>
<!DOCTYPE svg PUBLIC "-//W3C//DTD SVG 20010904//EN"
 "http://www.w3.org/TR/2001/REC-SVG-20010904/DTD/svg10.dtd">
<svg version="1.0" xmlns="http://www.w3.org/2000/svg"
 width="637.000000pt" height="306.000000pt" viewBox="0 0 637.000000 306.000000"
 preserveAspectRatio="xMidYMid meet">

<g transform="translate(0.000000,306.000000) scale(0.100000,-0.100000)"
fill="#000000" stroke="none">
<path d="M0 1530 l0 -1530 3185 0 3185 0 0 1530 0 1530 -3185 0 -3185 0 0
-1530z m331 1263 c28 -24 41 -27 98 -28 58 0 70 3 99 27 54 46 57 44 72 -77 6
-44 13 -97 16 -117 8 -46 -9 -97 -44 -134 -40 -43 -73 -57 -130 -53 -56 4 -58
-7 -2 -14 l35 -4 -37 -1 c-44 -2 -92 14 -83 28 4 6 10 8 15 5 5 -3 11 -1 15 5
8 13 62 13 70 0 11 -17 37 -11 33 8 -2 9 -10 16 -16 15 -7 -2 -12 8 -12 22 0
19 -5 25 -21 25 -18 0 -19 2 -9 15 10 13 9 15 -9 15 -12 0 -20 -4 -16 -9 3 -5
1 -12 -5 -16 -9 -6 -14 8 -11 28 1 5 -3 6 -8 2 -6 -3 -7 -13 -4 -23 4 -13 2
-13 -10 3 l-16 20 -6 -20 c-13 -39 -13 -43 -2 -54 8 -8 8 -11 -2 -11 -7 0 -9
-4 -6 -10 15 -24 -26 -7 -48 20 -34 39 -50 93 -43 138 3 20 10 73 16 117 15
120 18 123 71 78z m729 -83 c0 -27 -4 -50 -10 -50 -5 0 -10 -7 -10 -17 0 -15
-1 -15 -18 0 -16 14 -43 17 -165 17 l-147 0 0 50 0 50 175 0 175 0 0 -50z
m180 -20 c0 -33 -4 -60 -10 -60 -6 0 -10 27 -10 60 0 33 4 60 10 60 6 0 10
-27 10 -60z m110 25 c0 -19 -4 -35 -10 -35 -5 0 -10 16 -10 35 0 19 5 35 10
35 6 0 10 -16 10 -35z m124 -17 c8 -6 8 -8 -1 -8 -8 0 -13 -13 -13 -30 0 -16
-4 -30 -10 -30 -5 0 -10 24 -10 53 0 56 12 86 19 45 1 -12 8 -26 15 -30z m354
-59 c-17 -11 -38 9 -38 36 0 24 22 49 33 38 4 -3 8 5 9 18 1 13 3 0 5 -30 3
-37 0 -57 -9 -62z m-620 44 c-1 -36 -3 -45 -5 -25 -5 35 -14 40 -33 17 -20
-24 -33 -17 -16 7 20 29 20 35 -1 41 -12 3 -8 5 9 6 17 1 28 -5 31 -16 4 -14
5 -12 6 5 0 12 3 22 6 22 3 0 4 -26 3 -57z m108 42 c6 -15 -11 -45 -25 -45 -4
0 -16 6 -26 14 -16 12 -17 16 -6 30 17 20 50 21 57 1z m264 6 c0 -6 -15 -11
-32 -13 -42 -4 -39 -21 4 -29 32 -6 31 -6 -9 -8 -41 -1 -43 0 -43 29 0 28 2
30 40 30 22 0 40 -4 40 -9z m138 -29 c3 -27 -1 -35 -17 -39 -12 -3 -18 -9 -15
-14 3 -5 1 -9 -4 -9 -12 0 -22 25 -22 53 0 18 2 20 11 7 8 -11 9 -8 4 13 -5
25 -3 28 17 25 18 -2 24 -10 26 -36z m-288 10 c0 -20 -46 -69 -56 -60 -3 4 4
16 15 27 27 27 26 39 -1 44 -17 3 -14 5 10 6 25 1 32 -3 32 -17z m4348 -29
c-1 -44 -2 -45 -5 -10 -2 20 -10 37 -16 37 -7 0 -6 4 3 10 8 5 16 10 18 10 1
0 1 -21 0 -47z m109 -30 c-2 -16 -4 -3 -4 27 0 30 2 43 4 28 2 -16 2 -40 0
-55z m73 64 c0 -17 -38 -53 -46 -44 -3 3 4 10 15 17 26 13 27 27 4 33 -14 4
-12 5 5 6 12 0 22 -5 22 -12z m32 -5 c3 -9 1 -26 -3 -37 -6 -15 -8 -11 -8 18
-1 40 4 48 11 19z m131 11 c-7 -2 -13 -11 -13 -18 0 -7 6 -16 13 -19 7 -3 6
-5 -3 -3 -16 2 -20 -3 -20 -27 0 -9 13 -16 33 -19 31 -4 31 -4 -5 -5 -32 -2
-38 1 -38 18 0 11 -5 20 -10 20 -6 0 -5 8 2 20 11 17 10 22 -2 30 -11 7 -6 10
20 9 19 0 29 -3 23 -6z m37 -28 c0 -39 -15 -48 -22 -12 -5 27 0 47 13 47 5 0
9 -16 9 -35z m-4380 -20 c0 -21 -6 -35 -16 -39 -37 -14 -48 34 -11 52 l22 11
-25 0 c-19 1 -21 4 -11 10 24 15 41 1 41 -34z m4083 -14 c-2 -3 -9 1 -15 7 -8
8 -15 7 -24 -6 -8 -9 -14 -12 -14 -5 0 6 5 15 10 18 6 3 10 16 10 28 0 20 2
19 19 -8 10 -16 17 -32 14 -34z m-3954 12 l-2 -38 -7 35 -7 35 -2 -32 c0 -18
-5 -33 -11 -33 -5 0 -11 15 -11 33 l-2 32 -7 -35 -7 -35 -2 38 c-1 35 1 37 29
37 28 0 30 -2 29 -37z m38 -15 c-2 -13 -4 -5 -4 17 -1 22 1 32 4 23 2 -10 2
-28 0 -40z m81 15 l-1 -38 -4 33 c-5 40 -25 38 -34 -4 -6 -27 -7 -27 -8 9 -1
33 2 37 24 37 23 0 25 -4 23 -37z m-678 -23 c0 -17 -7 -20 -40 -20 -33 0 -40
3 -40 20 0 17 7 20 40 20 33 0 40 -3 40 -20z m240 0 c0 -5 -25 -10 -56 -10
-34 0 -53 4 -49 10 3 6 28 10 56 10 27 0 49 -4 49 -10z m4380 -13 c21 -4 20
-4 -7 -6 -25 -1 -33 3 -33 17 0 11 3 13 8 6 4 -7 18 -14 32 -17z m-5146 -119
c-6 -10 -5 -10 7 -1 20 16 56 6 62 -18 3 -10 2 -17 -3 -14 -11 7 -21 -22 -14
-40 4 -8 10 -15 15 -15 14 0 10 -36 -6 -50 -8 -6 -20 -8 -26 -4 -7 4 -18 0
-25 -10 -12 -17 -13 -16 -24 3 -6 12 -8 26 -5 31 3 5 1 11 -5 15 -15 9 -12 68
6 93 16 23 31 31 18 10z m484 -59 c16 -1 16 -2 0 -6 -10 -2 -18 -17 -21 -36
-2 -18 -4 -5 -4 28 0 33 2 50 4 38 2 -13 12 -24 21 -24z m578 26 c4 -9 -1 -30
-11 -48 -13 -25 -15 -27 -10 -7 12 47 11 55 -9 52 -11 -2 -15 1 -11 7 9 16 35
13 41 -4z m-226 -10 c18 -21 5 -47 -22 -43 -26 3 -37 36 -16 49 18 12 24 11
38 -6z m42 -2 c5 -25 -3 -63 -13 -63 -5 0 -9 18 -9 40 0 40 15 56 22 23z m66
-36 c24 -4 24 -4 -5 -6 -31 -1 -33 1 -32 32 2 29 2 29 6 5 3 -20 11 -28 31
-31z m50 1 l-3 -53 -35 0 c-47 0 -49 29 -2 33 34 3 47 31 15 33 -15 0 -15 2 2
9 l20 9 -20 1 -20 1 20 9 c11 5 21 9 23 9 2 1 2 -23 0 -51z m-1438 38 c0 -3
-4 -8 -10 -11 -5 -3 -10 -1 -10 4 0 6 5 11 10 11 6 0 10 -2 10 -4z m690 -51
c0 -19 -4 -35 -8 -35 -4 0 -6 16 -4 35 2 19 6 35 8 35 2 0 4 -16 4 -35z m47
-17 c-2 -13 -4 -5 -4 17 -1 22 1 32 4 23 2 -10 2 -28 0 -40z m111 33 c-9 -15
-9 -23 1 -35 8 -9 9 -16 3 -16 -5 0 -13 7 -16 16 -8 20 2 54 15 54 5 0 4 -9
-3 -19z m162 -22 c0 -16 -3 -29 -7 -29 -5 0 -8 15 -8 34 0 19 3 32 7 30 4 -3
8 -18 8 -35z m58 4 l-1 -38 -4 33 c-3 24 -8 32 -19 28 -8 -3 -14 -1 -14 4 0 6
9 10 20 10 17 0 20 -6 18 -37z m-444 -1 c3 -5 -1 -9 -9 -9 -8 0 -12 4 -9 9 3
4 7 8 9 8 2 0 6 -4 9 -8z m352 -12 c0 -11 -4 -20 -8 -20 -10 0 -11 24 -1 33 9
9 9 10 9 -13z m284 -4 c0 -9 13 -16 33 -19 28 -3 26 -4 -10 -5 -37 -2 -43 1
-43 18 0 11 5 20 10 20 6 0 10 -6 10 -14z m-1228 -404 c24 -22 32 -24 90 -19
35 3 53 3 40 1 -12 -3 -20 -10 -17 -15 7 -11 55 -12 55 -1 0 4 9 8 19 9 11 1
45 22 76 47 31 25 62 46 71 46 21 0 32 -36 40 -137 6 -79 6 -87 -9 -75 -25 21
-27 1 -7 -58 21 -61 25 -106 10 -115 -5 -3 -10 -16 -9 -28 0 -21 1 -21 9 -2 6
15 8 8 8 -25 0 -53 -26 -119 -39 -98 -5 7 -8 22 -8 33 1 17 2 16 10 -5 6 -18
7 -13 3 20 -3 25 -5 72 -6 105 0 33 -2 48 -5 33 -2 -16 -9 -28 -14 -28 -6 0
-8 4 -5 9 3 4 -5 6 -18 4 -19 -4 -28 2 -41 23 -15 27 -16 27 -9 4 3 -14 6 -38
6 -53 -1 -24 2 -28 21 -25 14 2 21 9 20 22 -2 27 16 6 26 -32 6 -19 6 -32 1
-32 -5 0 -7 -6 -4 -14 3 -8 0 -24 -6 -36 -7 -13 -8 -20 -2 -16 7 4 10 -6 10
-25 -1 -26 -9 -36 -46 -60 -49 -31 -58 -30 -72 7 -5 13 -17 24 -27 24 -17 -1
-17 -1 0 -14 24 -19 12 -44 -19 -38 -13 2 -24 9 -24 14 0 5 -5 6 -10 3 -7 -4
-7 -13 0 -26 9 -16 7 -19 -14 -19 -14 0 -28 5 -31 11 -4 6 -13 8 -21 5 -28
-11 -61 11 -66 43 -2 16 -1 28 4 25 9 -6 11 4 10 61 -1 60 -1 60 -14 42 -11
-15 -13 -8 -12 40 0 44 -3 60 -15 65 -14 6 -13 7 2 7 13 1 17 10 17 44 0 62
27 132 66 174 19 20 34 38 34 40 0 3 -20 -7 -44 -21 -52 -31 -66 -32 -66 -8 0
9 -9 23 -20 30 -17 10 -21 10 -25 -3 -3 -8 -7 -22 -10 -31 -3 -8 6 -26 21 -39
14 -13 21 -26 15 -29 -6 -4 -16 2 -23 14 -7 11 -16 20 -19 20 -13 0 4 -42 21
-52 15 -9 16 -17 8 -40 -6 -16 -8 -40 -5 -54 3 -19 1 -24 -12 -21 -9 2 -15 9
-13 15 1 9 -6 8 -22 -3 -23 -15 -24 -15 -28 10 -3 14 -1 25 5 25 6 0 8 3 4 6
-3 3 -1 18 4 32 7 18 6 27 -3 33 -16 10 2 190 22 214 11 14 17 13 49 -11 20
-15 48 -38 63 -52z m634 -163 c7 -30 13 -60 14 -66 0 -21 -21 -15 -27 7 -3 11
-9 20 -13 20 -4 0 -10 -9 -13 -20 -9 -35 -29 -24 -22 13 25 123 41 135 61 46z
m64 51 c0 -5 -4 -10 -10 -10 -5 0 -10 5 -10 10 0 6 5 10 10 10 6 0 10 -4 10
-10z m220 -10 c0 -13 7 -20 20 -20 17 0 20 -7 20 -50 0 -27 -4 -50 -10 -50 -5
0 -10 18 -10 41 0 24 -4 38 -10 34 -5 -3 -10 -22 -10 -41 0 -19 -4 -34 -10
-34 -6 0 -10 30 -10 70 0 40 4 70 10 70 6 0 10 -9 10 -20z m370 -10 c0 -5 9
-19 19 -29 17 -17 20 -18 36 -2 15 15 17 15 31 -3 18 -25 18 -37 0 -61 -14
-19 -15 -19 -34 -2 -17 15 -20 16 -25 3 -3 -8 -15 -14 -26 -13 -19 1 -21 8
-21 59 0 32 4 58 10 58 6 0 10 -4 10 -10z m-410 -21 c0 -5 -9 -9 -21 -9 -16 0
-20 -5 -17 -27 2 -20 8 -27 21 -25 21 4 23 -16 2 -24 -39 -15 -65 74 -28 94
18 11 43 5 43 -9z m148 9 c7 -7 12 -30 12 -53 0 -36 -3 -41 -24 -43 -47 -3
-61 53 -16 65 11 3 17 9 15 14 -3 4 -12 6 -20 2 -8 -3 -15 -1 -15 5 0 9 14 19
31 21 3 1 10 -4 17 -11z m410 -29 c-6 -4 -8 -20 -5 -39 5 -23 3 -30 -6 -27
-16 5 -28 79 -15 95 8 10 13 8 23 -5 9 -12 10 -20 3 -24z m-738 -19 c0 -27 -4
-50 -10 -50 -5 0 -10 23 -10 50 0 28 5 50 10 50 6 0 10 -22 10 -50z m418 -2
c2 -29 -1 -48 -7 -48 -6 0 -11 18 -11 40 0 22 -4 40 -10 40 -5 0 -10 -18 -10
-40 0 -22 -4 -40 -10 -40 -5 0 -10 23 -10 51 0 49 1 50 28 47 25 -3 27 -7 30
-50z m-308 22 c0 -5 -15 -10 -34 -10 -19 0 -38 5 -41 10 -4 6 10 10 34 10 23
0 41 -4 41 -10z m-899 -154 c8 -17 8 -29 -1 -45 -14 -27 -37 -24 -57 6 -15 22
-14 22 24 17 36 -4 36 -4 11 7 -28 11 -34 20 -21 32 13 14 34 6 44 -17z m729
-25 c13 -25 13 -68 0 -76 -5 -3 -7 -12 -4 -19 3 -7 -3 -17 -13 -20 -22 -9 -53
26 -53 59 0 64 46 101 70 56z m140 9 c0 -5 -4 -10 -10 -10 -5 0 -10 5 -10 10
0 6 5 10 10 10 6 0 10 -4 10 -10z m220 -9 c0 -10 9 -21 20 -24 16 -4 20 -14
20 -51 0 -25 -4 -46 -10 -46 -5 0 -10 21 -10 46 0 27 -4 43 -10 39 -5 -3 -10
-21 -10 -40 0 -19 -4 -37 -10 -40 -6 -4 -10 20 -10 64 0 41 4 71 10 71 6 0 10
-8 10 -19z m-282 -71 c3 -42 1 -46 -22 -48 -34 -2 -53 30 -30 52 8 9 20 16 25
16 5 0 9 5 9 11 0 6 -9 8 -20 4 -12 -4 -20 -2 -20 5 0 6 12 10 28 8 24 -3 27
-7 30 -48z m62 0 c0 -27 -4 -50 -10 -50 -5 0 -10 23 -10 50 0 28 5 50 10 50 6
0 10 -22 10 -50z m180 40 c0 -6 -8 -10 -17 -8 -14 2 -19 -5 -21 -31 -3 -30 -1
-33 17 -28 24 6 29 -11 6 -19 -23 -9 -45 15 -45 51 0 17 3 35 7 38 10 11 53 8
53 -3z m158 -40 c3 -42 1 -46 -21 -48 -47 -3 -60 49 -16 63 10 4 19 11 19 16
0 6 -9 7 -20 4 -12 -4 -20 -2 -20 5 0 6 12 10 28 8 24 -3 27 -7 30 -48z m80
-2 c2 -29 -1 -48 -7 -48 -6 0 -11 20 -11 46 0 27 -4 43 -10 39 -5 -3 -10 -21
-10 -40 0 -19 -4 -37 -10 -40 -6 -4 -10 13 -10 45 0 50 1 51 28 48 25 -3 27
-7 30 -50z m-1313 -2 c13 -6 16 -10 7 -13 -15 -6 -42 14 -42 31 0 8 3 8 8 0 4
-6 16 -14 27 -18z m42 -18 c-3 -8 -6 -5 -6 6 -1 11 2 17 5 13 3 -3 4 -12 1
-19z m3 -48 c11 -11 20 -29 20 -40 0 -26 -34 -60 -60 -60 -26 0 -60 34 -60 60
0 11 9 29 20 40 11 11 29 20 40 20 11 0 29 -9 40 -20z m943 13 c-13 -2 -33 -2
-45 0 -13 2 -3 4 22 4 25 0 35 -2 23 -4z m-613 -328 c0 -14 6 -25 13 -26 10 0
10 -2 0 -6 -7 -2 -13 -16 -13 -29 0 -13 -4 -24 -10 -24 -5 0 -10 25 -10 55 0
30 5 55 10 55 6 0 10 -11 10 -25z m158 -47 l-3 -73 -45 0 c-38 0 -45 3 -48 21
-2 16 4 23 23 28 15 4 35 4 45 1 15 -5 17 -2 13 15 -3 11 -14 20 -24 20 -27 0
-24 20 4 21 21 1 21 1 -3 9 -24 8 -24 8 -2 9 12 1 22 6 22 11 0 6 5 10 10 10
7 0 10 -27 8 -72z m72 17 c0 -30 -4 -55 -10 -55 -5 0 -10 25 -10 55 0 30 5 55
10 55 6 0 10 -25 10 -55z m260 -19 c0 -72 -15 -111 -27 -67 -3 12 -12 21 -19
21 -20 0 -17 18 4 23 13 4 11 5 -5 6 -19 1 -23 -4 -23 -29 0 -16 -4 -30 -10
-30 -5 0 -10 11 -10 25 0 18 -5 25 -19 25 -11 0 -23 5 -26 10 -4 6 15 10 49
10 l56 0 6 40 c11 65 24 46 24 -34z m380 45 c0 -16 6 -32 13 -35 10 -5 10 -7
0 -12 -7 -3 -13 -23 -13 -45 0 -21 -4 -39 -10 -39 -6 0 -10 33 -10 80 0 47 4
80 10 80 6 0 10 -13 10 -29z m160 20 c0 -5 -10 -11 -22 -14 -22 -3 -22 -4 -3
-12 20 -9 35 -24 35 -37 0 -5 -15 -9 -32 -9 -31 -2 -31 -2 -5 -6 19 -3 27 -10
27 -24 0 -16 -8 -19 -47 -21 l-48 -1 50 -7 50 -7 -57 -1 c-52 -2 -58 0 -58 18
0 17 7 20 48 22 l47 1 -50 6 c-39 5 -44 8 -25 13 22 5 21 5 -9 7 -26 1 -32 4
-27 17 3 9 6 18 6 20 0 2 9 4 19 4 11 0 23 5 26 10 4 6 -5 10 -20 10 -15 0
-24 4 -20 10 8 13 115 13 115 1z m150 -20 c0 -16 6 -32 13 -35 10 -5 10 -7 0
-12 -7 -3 -13 -23 -13 -45 0 -21 -4 -39 -10 -39 -6 0 -10 33 -10 80 0 47 4 80
10 80 6 0 10 -13 10 -29z m99 10 c7 -13 6 -24 -4 -37 -8 -11 -15 -27 -15 -36
0 -22 -20 -24 -20 -3 0 9 7 26 16 39 17 27 6 41 -26 31 -22 -7 -28 10 -7 18
25 11 47 6 56 -12z m-1619 -6 c-11 -13 -7 -15 29 -15 28 0 47 -6 61 -20 25
-25 25 -35 0 -60 -21 -21 -50 -27 -50 -10 0 6 6 10 14 10 7 0 19 6 25 14 17
21 -13 46 -55 46 -32 0 -35 -2 -29 -22 7 -22 6 -22 -21 4 -27 27 -27 28 -9 48
22 24 55 29 35 5z m288 6 c18 -11 11 -51 -10 -65 -35 -22 -74 27 -48 59 14 17
38 19 58 6z m112 -21 c0 -27 3 -30 33 -31 27 0 29 -2 12 -9 -11 -5 -30 -9 -42
-9 -20 -1 -23 4 -23 39 0 22 5 40 10 40 6 0 10 -13 10 -30z m388 3 c-3 -24 -8
-28 -40 -31 -36 -3 -38 -2 -38 27 0 30 2 31 41 31 38 0 40 -1 37 -27z m272 17
c0 -5 -20 -10 -45 -10 -38 0 -45 -3 -45 -20 0 -17 7 -20 45 -20 25 0 45 -4 45
-10 0 -5 -9 -10 -20 -10 -11 0 -20 -7 -20 -15 0 -10 10 -15 31 -15 17 0 28 -4
24 -10 -3 -5 -35 -10 -70 -10 -35 0 -67 5 -70 10 -4 6 8 10 29 10 25 0 36 4
36 15 0 9 -9 15 -25 15 -22 0 -25 4 -25 40 l0 40 55 0 c30 0 55 -4 55 -10z
m114 -13 c9 -15 7 -22 -11 -37 -28 -23 -30 -40 -3 -33 11 3 20 0 20 -6 0 -7
-18 -11 -47 -10 -27 1 -40 3 -30 6 17 5 24 33 8 33 -16 0 -23 40 -10 56 16 19
59 14 73 -9z m316 -7 c0 -29 -27 -90 -39 -90 -14 0 -14 2 4 36 8 16 15 37 15
47 0 31 -17 18 -34 -28 -10 -25 -22 -45 -27 -45 -12 0 -12 1 6 43 19 45 19 45
-2 50 -10 3 3 5 30 6 41 1 47 -2 47 -19z m-1230 -79 c0 -16 8 -21 48 -24 46
-3 46 -3 -10 -5 -56 -2 -58 -1 -58 23 0 14 5 25 10 25 6 0 10 -9 10 -19z m318
-19 c2 -7 -3 -12 -12 -12 -9 0 -16 7 -16 16 0 17 22 14 28 -4z m1022 3 c0 -8
-7 -15 -15 -15 -16 0 -20 12 -8 23 11 12 23 8 23 -8z m224 -270 c-16 -24 -16
-56 0 -100 8 -20 7 -20 -8 -1 -27 33 -16 126 15 126 5 0 2 -11 -7 -25z m226
-51 c0 -36 -4 -64 -10 -64 -6 0 -10 30 -10 71 0 44 4 68 10 64 6 -3 10 -35 10
-71z m420 9 c0 -38 -15 -73 -31 -73 -6 0 -3 10 5 22 20 29 20 51 0 91 l-17 32
22 -19 c14 -12 21 -31 21 -53z m-2500 42 c10 -12 8 -21 -9 -48 -26 -43 -26
-45 2 -50 16 -3 13 -5 -10 -6 -39 -1 -42 14 -12 53 24 30 19 59 -7 49 -12 -4
-15 -3 -10 5 10 16 31 15 46 -3z m78 -41 c2 -38 -1 -54 -14 -65 -14 -11 -18
-11 -30 6 -28 37 -10 120 24 113 13 -2 18 -16 20 -54z m72 41 c10 -12 8 -21
-9 -48 -26 -43 -26 -45 2 -50 16 -3 13 -5 -10 -6 -39 -1 -42 14 -12 53 24 30
19 59 -7 49 -12 -4 -15 -3 -10 5 10 16 31 15 46 -3z m55 -15 c-18 -19 -17 -20
3 -20 25 0 37 -32 22 -60 -20 -37 -50 -15 -50 39 0 32 27 78 38 66 3 -3 -3
-14 -13 -25z m247 -17 c3 -27 1 -55 -3 -63 -6 -10 -8 -11 -9 -2 0 6 -9 12 -20
12 -11 0 -20 7 -20 15 0 19 32 85 41 85 4 0 9 -21 11 -47z m223 37 c14 -22 13
-99 -1 -111 -27 -23 -43 -3 -42 53 0 29 3 56 5 61 6 10 31 9 38 -3z m279 -6
c24 -23 17 -44 -16 -57 -28 -10 -21 -25 15 -30 17 -2 3 -4 -33 -4 -36 0 -53 2
-37 4 32 5 35 18 7 33 -25 13 -26 45 -2 59 25 15 48 13 66 -5z m156 -28 c0
-25 -4 -48 -10 -51 -6 -3 -10 5 -10 19 0 14 -8 30 -17 35 -17 10 -17 10 0 11
9 0 17 7 17 15 0 8 5 15 10 15 6 0 10 -20 10 -44z m152 -3 c3 -27 1 -55 -3
-63 -6 -10 -8 -11 -9 -2 0 6 -11 12 -25 12 -14 0 -25 2 -25 5 0 11 45 95 51
95 4 0 9 -21 11 -47z m150 0 c3 -27 1 -55 -3 -63 -6 -10 -8 -11 -9 -2 0 6 -9
12 -20 12 -11 0 -20 7 -20 15 0 19 32 85 41 85 4 0 9 -21 11 -47z m84 30 c-3
-10 -10 -38 -17 -63 -6 -25 -14 -40 -16 -33 -2 6 0 29 6 49 12 44 4 65 -16 39
-12 -18 -13 -18 -13 3 0 18 6 22 31 22 24 0 29 -4 25 -17z m142 -11 c2 -12 -6
-34 -18 -49 l-22 -28 24 -6 c22 -7 22 -7 -4 -8 -34 -1 -36 16 -7 53 24 30 19
59 -7 49 -12 -4 -15 -3 -10 6 12 19 41 8 44 -17z m60 -34 l-2 -63 -3 53 c-2
28 -9 52 -14 52 -6 0 -7 5 -4 10 16 25 25 5 23 -52z m232 2 c0 -33 -4 -60 -10
-60 -5 0 -10 23 -10 50 0 33 -4 50 -12 50 -9 0 -8 4 2 10 26 17 30 11 30 -50z
m289 10 c-4 -3 -9 -16 -12 -30 -2 -14 -5 0 -5 30 -2 51 -1 53 11 30 7 -14 10
-27 6 -30z m210 -2 c-1 -29 -4 -42 -6 -28 -2 14 -12 31 -21 38 -14 11 -14 12
1 12 9 0 17 7 17 15 0 8 2 15 5 15 3 0 4 -24 4 -52z m-1371 35 c-22 -6 -22
-12 -1 -35 9 -10 11 -18 5 -18 -6 0 -14 5 -17 11 -5 7 -14 4 -26 -7 -23 -20
-25 -7 -3 21 13 18 13 20 -3 27 -11 4 -3 6 22 6 22 0 32 -2 23 -5z m978 -64
c20 -23 8 -26 -16 -4 -15 14 -18 14 -30 0 -22 -27 -32 -16 -11 11 12 15 21 36
22 48 1 17 3 15 9 -8 5 -15 17 -37 26 -47z m134 57 c0 -16 -46 -56 -64 -56 -6
0 5 13 24 28 l34 27 -29 6 -30 7 33 1 c22 1 32 -4 32 -13z m213 7 c-19 -7 -16
-30 5 -42 16 -10 16 -10 0 -11 -9 0 -20 5 -23 10 -4 6 -12 4 -22 -5 -8 -9 -18
-14 -20 -11 -3 3 2 12 11 21 21 21 20 32 -1 38 -10 3 0 5 22 5 22 0 34 -2 28
-5z m-1063 -13 c0 -5 -4 -10 -10 -10 -5 0 -10 5 -10 10 0 6 5 10 10 10 6 0 10
-4 10 -10z m230 0 c0 -5 -4 -10 -10 -10 -5 0 -10 5 -10 10 0 6 5 10 10 10 6 0
10 -4 10 -10z m590 -69 c0 -16 8 -21 43 -24 40 -3 40 -4 -10 -5 -50 -2 -53 -1
-53 23 0 14 5 25 10 25 6 0 10 -9 10 -19z m-1067 -24 l42 -4 -47 -1 c-44 -2
-48 0 -47 21 1 16 3 17 6 5 3 -12 17 -18 46 -21z m247 23 c0 -5 -4 -10 -10
-10 -5 0 -10 5 -10 10 0 6 5 10 10 10 6 0 10 -4 10 -10z m230 0 c0 -5 -4 -10
-10 -10 -5 0 -10 5 -10 10 0 6 5 10 10 10 6 0 10 -4 10 -10z m810 -4 c0 -10
13 -16 38 -19 34 -3 33 -4 -10 -5 -42 -2 -48 1 -48 18 0 11 5 20 10 20 6 0 10
-6 10 -14z m-2080 -6 c0 -5 -7 -10 -15 -10 -8 0 -15 5 -15 10 0 6 7 10 15 10
8 0 15 -4 15 -10z m220 0 c0 -5 -4 -10 -10 -10 -5 0 -10 5 -10 10 0 6 5 10 10
10 6 0 10 -4 10 -10z m230 0 c0 -5 -7 -10 -15 -10 -8 0 -15 5 -15 10 0 6 7 10
15 10 8 0 15 -4 15 -10z m134 -333 c8 -13 6 -21 -8 -34 -13 -13 -20 -15 -23
-5 -3 7 -24 12 -54 12 -46 0 -49 -2 -49 -25 0 -14 -5 -25 -11 -25 -6 0 -9 14
-7 33 3 32 3 32 65 35 52 2 61 6 56 19 -8 21 17 13 31 -10z m596 -27 c0 -27 3
-30 30 -30 17 0 30 -4 30 -10 0 -5 -13 -10 -30 -10 -27 0 -30 -3 -30 -30 0
-16 -4 -30 -10 -30 -5 0 -10 14 -10 30 0 28 -3 30 -36 30 -21 0 -33 4 -29 10
3 6 19 10 36 10 26 0 29 3 29 30 0 17 5 30 10 30 6 0 10 -13 10 -30z m-1354 5
c-4 -12 3 -15 34 -15 39 0 80 -26 80 -50 0 -15 -38 -50 -55 -50 -22 0 -18 17
5 23 24 6 27 42 4 51 -9 3 -29 6 -45 6 -26 0 -29 -3 -24 -20 8 -24 -2 -26 -27
-3 -22 20 -23 31 -1 55 20 22 37 24 29 3z m1952 -48 c2 -10 -3 -17 -12 -17
-18 0 -29 16 -21 31 9 14 29 6 33 -14z m62 -3 c0 -8 -7 -14 -15 -14 -15 0 -21
21 -9 33 10 9 24 -2 24 -19z m66 15 c10 -17 -13 -36 -27 -22 -12 12 -4 33 11
33 5 0 12 -5 16 -11z m-1327 -65 c-7 -8 -30 -14 -59 -14 -30 0 -50 -5 -53 -12
-3 -10 -10 -8 -23 5 -14 13 -16 21 -8 34 14 23 34 28 34 9 0 -22 88 -23 95 -1
15 46 19 50 23 22 2 -16 -2 -35 -9 -43z"/>
<path d="M296 2744 c-4 -9 -4 -19 -1 -22 7 -8 35 19 29 29 -8 14 -21 11 -28
-7z"/>
<path d="M536 2751 c-6 -10 22 -37 29 -29 8 7 -5 38 -15 38 -5 0 -11 -4 -14
-9z"/>
<path d="M453 2736 c4 -9 -1 -17 -11 -19 -10 -3 -5 -5 11 -6 15 0 27 -6 27
-12 0 -5 -6 -7 -12 -3 -10 6 -10 4 -2 -7 13 -17 24 -69 14 -69 -9 0 -44 39
-58 65 -10 18 -11 17 -12 -11 0 -17 7 -37 15 -44 19 -16 11 -30 -14 -23 -12 3
-17 11 -14 20 3 8 -6 3 -21 -11 -14 -15 -26 -31 -26 -36 0 -6 -4 -10 -8 -10
-5 0 -9 -7 -9 -15 0 -11 6 -14 16 -9 9 4 24 6 34 6 9 0 15 3 12 8 -3 6 1 7 9
4 11 -4 16 0 16 12 1 18 1 18 14 2 14 -19 46 -25 46 -8 0 19 38 31 60 18 16
-10 19 -22 17 -60 -1 -26 -5 -48 -9 -48 -5 0 -8 -5 -8 -11 0 -6 5 -9 12 -7 15
5 23 128 8 128 -5 0 -9 3 -8 8 1 4 -1 23 -5 42 -7 30 -9 32 -18 18 -16 -29
-26 -21 -26 22 0 21 -6 46 -13 55 -16 19 -44 20 -37 1z m-92 -169 c-10 -9 -11
-8 -5 6 3 10 9 15 12 12 3 -3 0 -11 -7 -18z"/>
<path d="M354 2716 c-3 -13 -4 -38 -2 -57 l4 -34 13 30 c23 54 25 85 7 85 -8
0 -18 -11 -22 -24z"/>
<path d="M310 2653 c0 -11 -5 -24 -11 -30 -13 -13 2 -25 18 -15 16 10 20 54 6
59 -8 3 -13 -3 -13 -14z"/>
<path d="M283 2578 c1 -15 6 -23 11 -18 4 4 4 16 -2 26 -9 16 -10 14 -9 -8z"/>
<path d="M500 2580 c-8 -5 -11 -12 -7 -16 4 -4 13 -2 19 4 15 15 7 24 -12 12z"/>
<path d="M459 2533 c-8 -10 -9 -14 -2 -10 7 4 16 0 22 -10 6 -10 11 -13 11 -6
0 6 -5 15 -10 18 -6 4 -8 11 -5 16 10 15 -2 10 -16 -8z"/>
<path d="M494 2486 c-4 -19 -2 -33 9 -44 14 -14 17 -14 22 -1 3 9 -1 28 -9 44
l-15 28 -7 -27z"/>
<path d="M847 2743 c-4 -3 -7 -21 -7 -40 l0 -33 100 0 100 0 0 40 0 40 -93 0
c-52 0 -97 -3 -100 -7z m133 -24 c0 -6 -4 -7 -10 -4 -5 3 -10 11 -10 16 0 6 5
7 10 4 6 -3 10 -11 10 -16z m43 14 c-7 -2 -19 -2 -25 0 -7 3 -2 5 12 5 14 0
19 -2 13 -5z m-33 -40 c0 -5 -11 -8 -24 -8 -13 0 -22 3 -19 8 2 4 13 7 24 7
10 0 19 -3 19 -7z"/>
<path d="M734 2720 c3 -14 6 -28 6 -32 0 -19 19 -5 28 20 l10 27 1 -25 c1 -19
6 -26 21 -26 15 0 20 7 20 28 0 24 -4 28 -30 28 -22 0 -30 -5 -30 -17 -1 -16
-2 -16 -17 2 -15 20 -15 19 -9 -5z"/>
<path d="M1804 2685 c-3 -8 -3 -19 1 -25 11 -18 25 -11 25 15 0 27 -17 34 -26
10z"/>
<path d="M1275 2710 c3 -5 10 -10 16 -10 5 0 9 5 9 10 0 6 -7 10 -16 10 -8 0
-12 -4 -9 -10z"/>
<path d="M1688 2723 c7 -3 16 -2 19 1 4 3 -2 6 -13 5 -11 0 -14 -3 -6 -6z"/>
<path d="M1691 2694 c0 -11 3 -14 6 -6 3 7 2 16 -1 19 -3 4 -6 -2 -5 -13z"/>
<path d="M1750 2670 c-8 -5 -11 -12 -7 -16 4 -4 13 -2 19 4 15 15 7 24 -12 12z"/>
<path d="M1295 2650 c3 -5 13 -10 21 -10 8 0 14 5 14 10 0 6 -9 10 -21 10 -11
0 -17 -4 -14 -10z"/>
<path d="M837 2474 c-11 -11 -8 -26 3 -19 6 3 10 1 10 -4 0 -17 -18 -13 -29 7
-9 14 -10 13 -9 -10 3 -31 32 -39 42 -12 7 18 -7 48 -17 38z"/>
<path d="M815 2390 c3 -5 8 -10 11 -10 2 0 4 5 4 10 0 6 -5 10 -11 10 -5 0 -7
-4 -4 -10z"/>
<path d="M1625 2470 c-10 -17 12 -37 25 -24 8 8 6 15 -4 23 -10 9 -16 9 -21 1z"/>
<path d="M1760 2400 c0 -5 9 -10 19 -10 11 0 23 5 26 10 4 6 -5 10 -19 10 -14
0 -26 -4 -26 -10z"/>
<path d="M698 1966 c-25 -18 -23 -28 16 -65 l34 -33 -10 49 c-12 58 -18 65
-40 49z"/>
<path d="M600 1950 c0 -5 6 -10 14 -10 8 0 23 -3 33 -6 16 -6 16 -5 -2 9 -23
19 -45 22 -45 7z"/>
<path d="M532 1943 c-7 -2 -17 -14 -23 -26 -11 -21 -10 -20 15 2 14 14 26 26
26 28 0 3 0 3 -18 -4z"/>
<path d="M667 1824 c-3 -4 1 -13 9 -21 8 -8 12 -18 9 -23 -3 -4 2 -10 10 -13
12 -5 12 -2 3 21 -15 35 -23 44 -31 36z"/>
<path d="M551 1803 c-1 -6 -4 -20 -7 -30 -5 -17 -5 -17 6 0 6 10 9 23 6 30 -3
9 -5 9 -5 0z"/>
<path d="M460 1741 c0 -17 4 -32 8 -35 4 -2 6 11 4 30 -5 42 -12 45 -12 5z"/>
<path d="M720 1755 c-7 -9 -11 -18 -8 -20 3 -3 11 1 18 10 7 9 11 18 8 20 -3
3 -11 -1 -18 -10z"/>
<path d="M580 1746 c0 -8 4 -17 9 -20 5 -4 7 3 4 14 -6 23 -13 26 -13 6z"/>
<path d="M515 1740 c-8 -13 -1 -24 14 -19 6 3 7 10 2 18 -6 10 -10 10 -16 1z"/>
<path d="M481 1666 c-19 -25 -20 -34 -6 -40 9 -3 25 4 37 16 16 16 20 17 15 5
-9 -23 6 -21 28 3 17 18 16 19 -6 24 -35 7 -58 4 -68 -8z"/>
<path d="M497 1521 c3 -12 11 -17 19 -14 8 3 14 6 12 7 -2 1 -11 7 -20 14 -14
11 -16 10 -11 -7z"/>
<path d="M430 1515 c0 -5 5 -17 10 -25 5 -8 10 -10 10 -5 0 6 -5 17 -10 25 -5
8 -10 11 -10 5z"/>
<path d="M510 1480 c0 -5 5 -10 11 -10 5 0 7 5 4 10 -3 6 -8 10 -11 10 -2 0
-4 -4 -4 -10z"/>
<path d="M636 1471 c-14 -15 -15 -21 -4 -27 7 -4 10 -3 5 1 -4 5 0 17 10 27 9
10 14 18 11 18 -3 0 -13 -9 -22 -19z"/>
<path d="M1700 1805 c0 -14 5 -25 10 -25 6 0 10 11 10 25 0 14 -4 25 -10 25
-5 0 -10 -11 -10 -25z"/>
<path d="M1760 1805 c0 -14 5 -25 10 -25 6 0 10 11 10 25 0 14 -4 25 -10 25
-5 0 -10 -11 -10 -25z"/>
<path d="M1410 1794 c0 -8 5 -12 10 -9 6 3 10 10 10 16 0 5 -4 9 -10 9 -5 0
-10 -7 -10 -16z"/>
<path d="M1006 1641 c-4 -5 3 -7 14 -4 23 6 26 13 6 13 -8 0 -17 -4 -20 -9z"/>
<path d="M1011 1594 c0 -11 3 -14 6 -6 3 7 2 16 -1 19 -3 4 -6 -2 -5 -13z"/>
<path d="M1006 1559 c3 -5 12 -9 21 -9 19 0 9 13 -12 16 -8 1 -13 -2 -9 -7z"/>
<path d="M1087 1573 c-12 -11 -8 -23 8 -23 8 0 15 7 15 15 0 16 -12 20 -23 8z"/>
<path d="M1485 1569 c-4 -6 -5 -13 -2 -16 7 -7 27 6 27 18 0 12 -17 12 -25 -2z"/>
<path d="M750 1094 c0 -11 8 -14 27 -12 39 4 42 28 4 28 -21 0 -31 -5 -31 -16z"/>
<path d="M1620 1170 c-11 -7 -4 -10 25 -9 31 0 36 2 20 9 -26 11 -28 11 -45 0z"/>
<path d="M570 1170 c0 -13 7 -20 20 -20 13 0 20 7 20 20 0 13 -7 20 -20 20
-13 0 -20 -7 -20 -20z"/>
<path d="M1060 1185 c0 -8 9 -15 20 -15 11 0 20 7 20 15 0 8 -9 15 -20 15 -11
0 -20 -7 -20 -15z"/>
<path d="M1442 1173 c4 -22 43 -25 43 -3 0 8 -11 16 -23 18 -19 3 -23 0 -20
-15z"/>
<path d="M347 814 c-4 -4 -7 -27 -7 -51 0 -52 23 -56 28 -5 3 34 -9 67 -21 56z"/>
<path d="M494 755 c-3 -8 -3 -19 1 -25 11 -18 25 -11 25 15 0 27 -17 34 -26
10z"/>
<path d="M720 770 c-9 -16 -8 -20 5 -20 8 0 15 9 15 20 0 11 -2 20 -5 20 -2 0
-9 -9 -15 -20z"/>
<path d="M945 810 c-7 -12 2 -30 16 -30 12 0 12 27 0 35 -5 3 -12 1 -16 -5z"/>
<path d="M947 753 c-13 -12 -7 -33 8 -33 8 0 15 9 15 20 0 20 -11 26 -23 13z"/>
<path d="M1194 805 c-23 -16 -9 -35 27 -35 22 0 29 5 29 19 0 23 -33 33 -56
16z"/>
<path d="M1530 770 c-9 -16 -8 -20 5 -20 8 0 15 9 15 20 0 11 -2 20 -5 20 -2
0 -9 -9 -15 -20z"/>
<path d="M1680 770 c-9 -16 -8 -20 5 -20 8 0 15 9 15 20 0 11 -2 20 -5 20 -2
0 -9 -9 -15 -20z"/>
</g>
</svg>
