<svg width="1400" height="780" viewBox="0 0 1400 780" fill="none" xmlns="http://www.w3.org/2000/svg">
  <rect width="1400" height="780" rx="28" fill="#0F172A"/>
  <rect x="28" y="28" width="1344" height="724" rx="20" fill="#111827" stroke="#334155"/>
  <rect x="58" y="58" width="220" height="664" rx="16" fill="#1F2937"/>
  <rect x="308" y="58" width="1034" height="70" rx="16" fill="#1E293B"/>
  <rect x="308" y="154" width="1034" height="260" rx="16" fill="#0B1220" stroke="#334155"/>
  <rect x="308" y="438" width="1034" height="120" rx="16" fill="#0B1220" stroke="#334155"/>
  <rect x="308" y="582" width="1034" height="140" rx="16" fill="#0B1220" stroke="#334155"/>
  <circle cx="92" cy="98" r="12" fill="#8BD450"/>
  <rect x="120" y="86" width="108" height="24" rx="12" fill="#E5E7EB" fill-opacity="0.9"/>
  <rect x="92" y="156" width="152" height="18" rx="9" fill="#94A3B8" fill-opacity="0.65"/>
  <rect x="92" y="192" width="122" height="18" rx="9" fill="#94A3B8" fill-opacity="0.35"/>
  <rect x="92" y="228" width="138" height="18" rx="9" fill="#94A3B8" fill-opacity="0.35"/>
  <rect x="92" y="302" width="136" height="16" rx="8" fill="#8BD450" fill-opacity="0.75"/>
  <text x="340" y="104" fill="#E5E7EB" font-family="Arial, Helvetica, sans-serif" font-size="28" font-weight="700">Replace with your actual Misskey bot screenshot</text>
  <text x="340" y="196" fill="#E5E7EB" font-family="Arial, Helvetica, sans-serif" font-size="46" font-weight="700">Bot Overview</text>
  <text x="340" y="252" fill="#94A3B8" font-family="Arial, Helvetica, sans-serif" font-size="24">Show the timeline, mention handling, or your container dashboard here.</text>
  <text x="340" y="292" fill="#94A3B8" font-family="Arial, Helvetica, sans-serif" font-size="24">This placeholder keeps the README layout polished until you add real images.</text>
</svg>
