<svg width="1600" height="420" viewBox="0 0 1600 420" fill="none" xmlns="http://www.w3.org/2000/svg">
  <defs>
    <linearGradient id="bg" x1="0" y1="0" x2="1600" y2="420" gradientUnits="userSpaceOnUse">
      <stop stop-color="#8BD450"/>
      <stop offset="1" stop-color="#7B61FF"/>
    </linearGradient>
    <linearGradient id="card" x1="0" y1="0" x2="1" y2="1">
      <stop stop-color="#ffffff" stop-opacity="0.22"/>
      <stop offset="1" stop-color="#ffffff" stop-opacity="0.08"/>
    </linearGradient>
  </defs>
  <rect width="1600" height="420" rx="32" fill="url(#bg)"/>
  <circle cx="1350" cy="80" r="160" fill="#ffffff" fill-opacity="0.08"/>
  <circle cx="1480" cy="300" r="120" fill="#ffffff" fill-opacity="0.08"/>
  <rect x="70" y="68" width="760" height="284" rx="28" fill="url(#card)" stroke="#ffffff" stroke-opacity="0.18"/>
  <rect x="920" y="96" width="260" height="200" rx="24" fill="#111827" fill-opacity="0.15" stroke="#ffffff" stroke-opacity="0.2"/>
  <rect x="955" y="134" width="190" height="18" rx="9" fill="#ffffff" fill-opacity="0.72"/>
  <rect x="955" y="170" width="150" height="14" rx="7" fill="#ffffff" fill-opacity="0.42"/>
  <rect x="955" y="210" width="120" height="14" rx="7" fill="#ffffff" fill-opacity="0.42"/>
  <rect x="955" y="250" width="165" height="32" rx="16" fill="#ffffff" fill-opacity="0.22"/>
  <circle cx="1270" cy="230" r="56" fill="#ffffff" fill-opacity="0.15"/>
  <path d="M1268 205C1282.91 205 1295 217.09 1295 232C1295 246.91 1282.91 259 1268 259C1253.09 259 1241 246.91 1241 232C1241 217.09 1253.09 205 1268 205ZM1262 220V244L1283 232L1262 220Z" fill="white" fill-opacity="0.85"/>
  <text x="110" y="155" fill="white" font-family="Arial, Helvetica, sans-serif" font-size="50" font-weight="700">Misskey Ollama Bot</text>
  <text x="110" y="208" fill="white" fill-opacity="0.92" font-family="Arial, Helvetica, sans-serif" font-size="26">Self-hosted AI replies for Misskey with Docker Compose</text>
  <text x="110" y="250" fill="white" fill-opacity="0.92" font-family="Arial, Helvetica, sans-serif" font-size="26">Ollama · OpenAI-compatible APIs · Access Control · Follow-back</text>
  <rect x="110" y="286" width="170" height="42" rx="21" fill="#ffffff" fill-opacity="0.18" stroke="#ffffff" stroke-opacity="0.26"/>
  <text x="142" y="313" fill="white" font-family="Arial, Helvetica, sans-serif" font-size="18" font-weight="700">Ready for GitHub</text>
</svg>
